<svg width="14" height="15" viewBox="0 0 14 15" fill="none" xmlns="http://www.w3.org/2000/svg">
<g clip-path="url(#clip0_53_368)">
<path d="M7.081 13.4951C10.1325 13.4951 12.6063 11.0213 12.6063 7.96979C12.6063 4.91824 10.1325 2.44446 7.081 2.44446C4.02944 2.44446 1.55566 4.91824 1.55566 7.96979C1.55566 11.0213 4.02944 13.4951 7.081 13.4951Z" stroke="#118BEE" stroke-width="1.28" stroke-linecap="round" stroke-linejoin="round"/>
<path d="M7.63699 5.5207C7.63383 5.66541 7.57374 5.80304 7.46974 5.9037C7.36568 6.00436 7.22615 6.05989 7.08141 6.05828C6.97592 6.05476 6.87384 6.02029 6.78782 5.95911C6.70175 5.89795 6.63568 5.81278 6.59775 5.7143C6.55976 5.61581 6.55164 5.50832 6.5744 5.40524C6.5971 5.30216 6.64966 5.20809 6.72552 5.13468C6.80138 5.06128 6.89714 5.01183 7.00089 4.9925C7.10465 4.97316 7.21187 4.9848 7.30906 5.02596C7.40624 5.06713 7.48915 5.13599 7.54745 5.22397C7.60581 5.31194 7.63693 5.41515 7.63699 5.5207ZM6.65737 10.5264V7.31273C6.65575 7.25628 6.66555 7.20007 6.68622 7.14757C6.70689 7.09506 6.73795 7.04728 6.77761 7.00713C6.81721 6.96693 6.86458 6.93516 6.91679 6.91377C6.969 6.89239 7.02503 6.88175 7.08141 6.88259C7.13709 6.88253 7.19222 6.89376 7.24341 6.91562C7.2946 6.93743 7.3409 6.96938 7.37942 7.00958C7.41795 7.04978 7.44788 7.09733 7.46753 7.14942C7.48718 7.20151 7.49602 7.25706 7.49357 7.31273V10.5264C7.49357 10.5813 7.48276 10.6356 7.4618 10.6863C7.44077 10.7371 7.40995 10.7832 7.37112 10.822C7.33229 10.8608 7.28624 10.8916 7.23553 10.9126C7.18475 10.9336 7.1304 10.9445 7.0755 10.9445C7.02061 10.9445 6.96619 10.9336 6.91547 10.9126C6.86476 10.8916 6.81865 10.8608 6.77982 10.822C6.74099 10.7832 6.71017 10.7371 6.6892 10.6863C6.66818 10.6356 6.65737 10.5813 6.65737 10.5264Z" fill="#118BEE"/>
</g>
<defs>
<clipPath id="clip0_53_368">
<rect width="14" height="14" fill="white" transform="translate(0 0.5)"/>
</clipPath>
</defs>
</svg>
