<svg width="20" height="21" viewBox="0 0 20 21" fill="none" xmlns="http://www.w3.org/2000/svg">
<path d="M14.5127 5.51997V6.07997H15.0768V5.51997H14.5127ZM4.78839 6.07997H14.5127V4.95997H4.78839V6.07997ZM15.0768 5.51997V4.25513H13.9486V5.51997H15.0768ZM12.7159 2.22244L4.59469 3.37418L4.75424 4.48292L12.8755 3.33118L12.7159 2.22244ZM4.59469 3.37418C3.91991 3.46987 3.4187 4.04357 3.4187 4.72024H4.54691C4.54691 4.60094 4.63527 4.49979 4.75424 4.48292L4.59469 3.37418ZM15.0768 4.25513C15.0768 3.00558 13.962 2.04573 12.7159 2.22244L12.8755 3.33118C13.4419 3.25086 13.9486 3.68715 13.9486 4.25513H15.0768ZM4.78839 4.95997C4.65503 4.95997 4.54691 4.85264 4.54691 4.72024H3.4187C3.4187 5.4712 4.03193 6.07997 4.78839 6.07997V4.95997Z" fill="#118BEE"/>
<path d="M6.99133 9.99994H13.0084" stroke="#118BEE" stroke-width="1.33333" stroke-linecap="round"/>
<path d="M6.99133 12.6133H11.1281" stroke="#118BEE" stroke-width="1.33333" stroke-linecap="round"/>
<path d="M3.98279 5.51998V15.2266C3.98279 16.4638 4.99302 17.4666 6.2392 17.4666H13.7606C15.0068 17.4666 16.017 16.4638 16.017 15.2266V11.4933M3.98279 5.51998V4.77332M3.98279 5.51998H13.7606C15.0068 5.51998 16.017 6.52287 16.017 7.75998V8.50665" stroke="#118BEE" stroke-width="1.33333" stroke-linecap="round"/>
</svg>
