<svg width="14" height="15" viewBox="0 0 14 15" fill="none" xmlns="http://www.w3.org/2000/svg">
<g clip-path="url(#clip0_53_361)">
<path d="M7.00005 13.7222C10.4365 13.7222 13.2223 10.9364 13.2223 7.49993C13.2223 4.06349 10.4365 1.27771 7.00005 1.27771C3.56362 1.27771 0.777832 4.06349 0.777832 7.49993C0.777832 10.9364 3.56362 13.7222 7.00005 13.7222Z" stroke="#118BEE" stroke-width="1.33333"/>
<path d="M7 3.7666V11.2333" stroke="#118BEE" stroke-width="1.33333" stroke-linecap="round"/>
<path d="M8.86663 5.94435C8.86663 5.08524 8.03093 4.38879 6.99997 4.38879C5.96901 4.38879 5.1333 5.08524 5.1333 5.94435C5.1333 6.80345 5.96901 7.49991 6.99997 7.49991C8.03093 7.49991 8.86663 8.19636 8.86663 9.05546C8.86663 9.91456 8.03093 10.611 6.99997 10.611C5.96901 10.611 5.1333 9.91456 5.1333 9.05546" stroke="#118BEE" stroke-width="1.33333" stroke-linecap="round"/>
</g>
<defs>
<clipPath id="clip0_53_361">
<rect width="14" height="14" fill="white" transform="translate(0 0.5)"/>
</clipPath>
</defs>
</svg>
