<svg width="20" height="21" viewBox="0 0 20 21" fill="none" xmlns="http://www.w3.org/2000/svg">
<path d="M9.11114 18H2.88892C2.88892 14.8653 5.20688 12.2721 8.22225 11.8408M16.9979 12.8478C16.9373 12.8515 16.8762 12.8533 16.8149 12.8533C15.9042 12.8533 15.0735 12.4466 14.4445 11.7778C13.8154 12.4466 12.9847 12.8532 12.0741 12.8532C12.0127 12.8532 11.9517 12.8514 11.891 12.8477C11.8171 13.1869 11.7778 13.5427 11.7778 13.9092C11.7778 15.8774 12.911 17.5311 14.4445 18C15.978 17.5311 17.1111 15.8774 17.1111 13.9092C17.1111 13.5427 17.0718 13.1869 16.9979 12.8478ZM12.6667 5.55556C12.6667 7.51924 11.0748 9.11111 9.11114 9.11111C7.14746 9.11111 5.55558 7.51924 5.55558 5.55556C5.55558 3.59188 7.14746 2 9.11114 2C11.0748 2 12.6667 3.59188 12.6667 5.55556Z" stroke="#118BEE" stroke-width="1.77778" stroke-linecap="round" stroke-linejoin="round"/>
</svg>
