<svg width="20" height="21" viewBox="0 0 20 21" fill="none" xmlns="http://www.w3.org/2000/svg">
<path d="M7.33333 15.4443H12.6667M2 13.311V11.1156C2 10.0946 2 9.58398 2.1316 9.11382C2.24818 8.69734 2.43976 8.30564 2.69693 7.95792C2.98726 7.56539 3.39026 7.25195 4.19625 6.62507L6.50736 4.82754C7.75652 3.85596 8.38107 3.37019 9.07076 3.18345C9.67929 3.01868 10.3207 3.01868 10.9292 3.18345C11.6189 3.37019 12.2435 3.85597 13.4926 4.82754L15.8037 6.62507C16.6098 7.25195 17.0127 7.56539 17.303 7.95792C17.5603 8.30564 17.7518 8.69734 17.8684 9.11382C18 9.58398 18 10.0946 18 11.1156V13.311C18 15.3023 18 16.298 17.6124 17.0586C17.2716 17.7275 16.7276 18.2715 16.0587 18.6124C15.298 18.9999 14.3024 18.9999 12.3111 18.9999H7.68889C5.69759 18.9999 4.70195 18.9999 3.94137 18.6124C3.27235 18.2715 2.72842 17.7275 2.38753 17.0586C2 16.298 2 15.3023 2 13.311Z" stroke="#118BEE" stroke-width="1.77778" stroke-linecap="round" stroke-linejoin="round"/>
</svg>
