<svg width="20" height="20" viewBox="0 0 20 20" fill="none" xmlns="http://www.w3.org/2000/svg">
<path d="M1.99913 2L17.9991 18M8.08294 8.14546C7.61837 8.62542 7.33247 9.27929 7.33247 10C7.33247 11.4728 8.5264 12.6667 9.99912 12.6667C10.7302 12.6667 11.3926 12.3724 11.8743 11.896M5.11024 5.24191C3.42198 6.35586 2.13605 8.03017 1.51736 10C2.65003 13.6063 6.0192 16.2222 9.99929 16.2222C11.7672 16.2222 13.4146 15.7061 14.7989 14.8164M9.11023 3.82168C9.40267 3.79265 9.69929 3.77778 9.99929 3.77778C13.9795 3.77778 17.3486 6.3937 18.4813 10C18.2317 10.7947 17.8735 11.5412 17.4242 12.2222" stroke="#646464" stroke-width="1.77778" stroke-linecap="round" stroke-linejoin="round"/>
</svg>
