<svg width="34" height="34" viewBox="0 0 34 34" fill="none" xmlns="http://www.w3.org/2000/svg">
<g clip-path="url(#clip0_24_360)">
<path d="M17 0.055542C26.3533 0.055542 33.9444 7.64665 33.9444 17C33.9444 26.3533 26.3533 33.9444 17 33.9444C7.64665 33.9444 0.055542 26.3533 0.055542 17C0.055542 7.64665 7.64665 0.055542 17 0.055542ZM6.87229 22.7882C9.35974 26.499 13.0943 28.8611 17.2711 28.8611C21.4462 28.8611 25.1825 26.5007 27.6682 22.7882C24.8482 20.1527 21.1309 18.689 17.2711 18.6944C13.4107 18.6886 9.69271 20.1523 6.87229 22.7882ZM17 15.3055C18.3482 15.3055 19.6411 14.77 20.5944 13.8167C21.5478 12.8634 22.0833 11.5704 22.0833 10.2222C22.0833 8.87402 21.5478 7.58106 20.5944 6.62775C19.6411 5.67444 18.3482 5.13888 17 5.13888C15.6518 5.13888 14.3588 5.67444 13.4055 6.62775C12.4522 7.58106 11.9167 8.87402 11.9167 10.2222C11.9167 11.5704 12.4522 12.8634 13.4055 13.8167C14.3588 14.77 15.6518 15.3055 17 15.3055Z" fill="white"/>
</g>
<defs>
<clipPath id="clip0_24_360">
<rect width="34" height="34" fill="white"/>
</clipPath>
</defs>
</svg>
