<svg width="20" height="21" viewBox="0 0 20 21" fill="none" xmlns="http://www.w3.org/2000/svg">
<path d="M15.3334 5.16667L14.6214 15.8448C14.5591 16.78 14.5279 17.2476 14.326 17.6022C14.1481 17.9144 13.8798 18.1653 13.5566 18.322C13.1894 18.5 12.7206 18.5 11.7833 18.5H8.21671C7.27938 18.5 6.81071 18.5 6.44348 18.322C6.12018 18.1653 5.85193 17.9144 5.67409 17.6022C5.47209 17.2476 5.44092 16.78 5.37857 15.8448L4.66669 5.16667M2.88892 5.16667H17.1111M13.5556 5.16667L13.315 4.44495C13.0819 3.74556 12.9653 3.39586 12.7491 3.13732C12.5582 2.909 12.313 2.73228 12.036 2.62336C11.7223 2.5 11.3538 2.5 10.6166 2.5H9.38349C8.64625 2.5 8.27772 2.5 7.96404 2.62336C7.68707 2.73228 7.44188 2.909 7.25095 3.13732C7.03474 3.39586 6.91818 3.74556 6.68504 4.44495L6.44447 5.16667M11.7778 8.72222V14.9444M8.22225 8.72222V14.9444" stroke="#E41613" stroke-width="1.77778" stroke-linecap="round" stroke-linejoin="round"/>
</svg>
