<svg width="14" height="15" viewBox="0 0 14 15" fill="none" xmlns="http://www.w3.org/2000/svg">
<path fill-rule="evenodd" clip-rule="evenodd" d="M2.56714 10.5262C1.82914 9.82281 1.32858 8.93278 1.12757 7.96638C0.924881 6.99726 1.02896 5.99406 1.42709 5.07926C1.82181 4.16959 2.49571 3.38906 3.36415 2.83568C5.12617 1.71249 7.44578 1.71249 9.20774 2.83568C10.0763 3.38906 10.7501 4.16959 11.1448 5.07926C11.543 5.99406 11.6471 6.99726 11.4443 7.96638C11.2434 8.93278 10.7428 9.82281 10.0048 10.5262C9.02744 11.4622 7.68642 11.9902 6.28593 11.9902C4.88553 11.9902 3.5445 11.4622 2.56714 10.5262Z" stroke="#6C6C6C" stroke-width="1.28" stroke-linecap="round" stroke-linejoin="round"/>
<path d="M6.2919 3.74781C5.94042 3.78257 5.6857 4.0767 5.7229 4.40476C5.76019 4.73282 6.07533 4.97059 6.42682 4.93583L6.2919 3.74781ZM7.87177 5.73033C8.00958 6.03415 8.38513 6.17616 8.71068 6.04753C9.03614 5.91892 9.18829 5.56839 9.05048 5.26459L7.87177 5.73033ZM10.5346 10.027C10.2845 9.79393 9.87923 9.79424 9.62955 10.0278C9.37978 10.2612 9.3802 10.6394 9.63032 10.8725L10.5346 10.027ZM12.5214 13.566C12.7716 13.7992 13.1768 13.7988 13.4265 13.5653C13.6762 13.3318 13.6759 12.9537 13.4257 12.7205L12.5214 13.566ZM6.42682 4.93583C7.04335 4.87485 7.6301 5.19745 7.87177 5.73033L9.05048 5.26459C8.58908 4.24729 7.46899 3.63141 6.2919 3.74781L6.42682 4.93583ZM9.63032 10.8725L12.5214 13.566L13.4257 12.7205L10.5346 10.027L9.63032 10.8725Z" fill="#6C6C6C"/>
</svg>
